<svg width="22" height="22" viewBox="0 0 22 22" fill="none" xmlns="http://www.w3.org/2000/svg">
<path fill-rule="evenodd" clip-rule="evenodd" d="M2.78363 10.25H6.26998C6.4204 7.44512 7.39621 5.30361 8.37596 3.83397C8.58142 3.52579 8.78707 3.24706 8.9854 2.99774C5.6374 3.83794 3.10136 6.72414 2.78363 10.25ZM11 2.99961C10.9696 3.02906 10.938 3.06014 10.9053 3.09283C10.5593 3.43885 10.0923 3.96357 9.62404 4.66603C8.77404 5.94103 7.92017 7.79961 7.77243 10.25H14.2276C14.0798 7.79961 13.226 5.94103 12.376 4.66603C11.9077 3.96357 11.4407 3.43885 11.0947 3.09283C11.062 3.06014 11.0304 3.02906 11 2.99961ZM14.2276 11.75H7.77243C7.92017 14.2004 8.77404 16.059 9.62404 17.334C10.0923 18.0364 10.5593 18.5611 10.9053 18.9072C10.938 18.9399 10.9696 18.9709 11 19.0004C11.0304 18.9709 11.062 18.9399 11.0947 18.9072C11.4407 18.5611 11.9077 18.0364 12.376 17.334C13.226 16.059 14.0798 14.2004 14.2276 11.75ZM8.98541 19.0023C8.78708 18.7529 8.58142 18.4742 8.37596 18.166C7.39621 16.6964 6.4204 14.5549 6.26998 11.75H2.78363C3.10136 15.2759 5.6374 18.1621 8.98541 19.0023ZM13.0146 19.0023C13.2129 18.7529 13.4186 18.4742 13.624 18.166C14.6038 16.6964 15.5796 14.5549 15.73 11.75H19.2164C18.8986 15.2759 16.3626 18.1621 13.0146 19.0023ZM19.2164 10.25H15.73C15.5796 7.44512 14.6038 5.30361 13.624 3.83397C13.4186 3.52579 13.2129 3.24706 13.0146 2.99774C16.3626 3.83794 18.8986 6.72414 19.2164 10.25ZM1.25 11C1.25 5.61522 5.61522 1.25 11 1.25C16.3848 1.25 20.75 5.61522 20.75 11C20.75 16.3848 16.3848 20.75 11 20.75C5.61522 20.75 1.25 16.3848 1.25 11Z" fill="white"/>
</svg>
