<svg width="22" height="22" viewBox="0 0 22 22" fill="none" xmlns="http://www.w3.org/2000/svg">
<path fill-rule="evenodd" clip-rule="evenodd" d="M13.0046 1.66726C13.0504 1.25558 13.4212 0.958917 13.8328 1.00465C15.5575 1.19625 17.0876 2.02852 18.28 3.2194C19.4739 4.41177 20.3018 5.94372 20.4953 7.66632C20.5416 8.07794 20.2454 8.44912 19.8338 8.49537C19.4222 8.54163 19.051 8.24544 19.0047 7.83381C18.8542 6.49378 18.2068 5.26622 17.22 4.28073C16.2318 3.29375 15.0056 2.64416 13.6672 2.49548C13.2555 2.44975 12.9589 2.07894 13.0046 1.66726ZM6.98292 2.75602C6.78793 2.58866 6.53836 2.49759 6.2807 2.50012L6.27333 2.50019L3.55862 2.50015C2.9599 2.50089 2.45009 3.05521 2.50409 3.65162C2.50614 3.6743 2.50716 3.69707 2.50715 3.71984C2.50041 12.2731 9.16629 18.9997 17.7759 18.993C17.7986 18.993 17.8213 18.994 17.8438 18.996C17.8629 18.9978 17.9407 18.9955 18.0939 18.8875C18.2447 18.7812 18.4067 18.6146 18.5644 18.413C18.7186 18.2159 18.8484 18.0116 18.9407 17.8537C18.9628 17.8158 18.9825 17.7812 18.9995 17.7505V15.2267L18.9997 15.2081C19.0061 14.9495 18.9171 14.6973 18.7492 14.4995C18.6454 14.3772 18.4283 14.2156 18.0778 14.0476C17.7398 13.8855 17.33 13.7422 16.8986 13.6301C16 13.3966 15.1684 13.3384 14.7913 13.4186C14.7206 13.4337 14.5825 13.493 14.3821 13.6324C14.1927 13.7641 13.9944 13.9343 13.8083 14.1114C13.624 14.2868 13.4626 14.4587 13.3468 14.5873C13.2893 14.6513 13.2438 14.7036 13.2133 14.7393C13.1981 14.7571 13.1866 14.7707 13.1794 14.7794L13.1716 14.7887L13.1704 14.7901C12.9143 15.1022 12.4569 15.1557 12.1358 14.9108L12.5906 14.3144C12.1358 14.9108 12.1358 14.9108 12.1358 14.9108L12.1319 14.9078L12.122 14.9003L12.0852 14.8719C12.0532 14.8472 12.0067 14.8111 11.9473 14.7645C11.8286 14.6715 11.6585 14.5367 11.4507 14.368C11.0355 14.0311 10.4677 13.5576 9.85804 13.0112C8.66416 11.9414 7.21994 10.5147 6.50862 9.26618C6.34123 8.97239 6.39114 8.60291 6.63047 8.36405C6.76904 8.22576 6.92153 8.08685 7.06206 7.95884C7.08553 7.93746 7.10867 7.91638 7.13136 7.89566C7.29675 7.74459 7.44755 7.6041 7.58302 7.46081C7.85986 7.16801 8.01061 6.9262 8.05945 6.69761C8.13952 6.32296 8.08168 5.49713 7.8492 4.60289C7.73762 4.17371 7.59499 3.76564 7.43371 3.42851C7.26661 3.07922 7.10551 2.86124 6.98292 2.75602ZM12.5051 13.2916C12.5875 13.2068 12.6778 13.1166 12.7741 13.025C12.9919 12.8176 13.2512 12.5918 13.5255 12.401C13.7889 12.2177 14.1208 12.0277 14.479 11.9515C15.2023 11.7975 16.3089 11.9271 17.2758 12.1783C17.7771 12.3086 18.2818 12.4819 18.7263 12.695C19.1584 12.9022 19.5918 13.1743 19.8927 13.5287C20.2967 14.0045 20.5125 14.6115 20.4995 15.2353V17.9365C20.4995 18.0504 20.4735 18.1629 20.4236 18.2653L19.7495 17.9365C20.4236 18.2653 20.4236 18.2653 20.4236 18.2653L20.4217 18.2692L20.4184 18.2758L20.4078 18.2969C20.3989 18.3145 20.3864 18.3387 20.3706 18.3687C20.3389 18.4285 20.2935 18.5117 20.2358 18.6104C20.1216 18.8059 19.9542 19.0709 19.7459 19.3372C19.5411 19.5991 19.2752 19.89 18.9581 20.1135C18.6513 20.3298 18.2351 20.5251 17.748 20.493C8.32938 20.4852 1.01618 13.104 1.00715 3.75018C0.895848 2.28151 2.09939 1.00152 3.55748 1.00015L6.26996 1.00015C6.88934 0.995036 7.48981 1.21434 7.95987 1.61779C8.31069 1.9189 8.58077 2.35045 8.78683 2.78116C8.9987 3.22403 9.1712 3.72643 9.30094 4.22547C9.55109 5.18766 9.68059 6.28922 9.52634 7.01108C9.39225 7.63857 9.02004 8.12427 8.67298 8.49134C8.4965 8.67799 8.31012 8.85052 8.14297 9.00319C8.13851 9.00727 8.13406 9.01134 8.12963 9.01538C8.78364 9.93159 9.84692 10.9871 10.8591 11.8941C11.4459 12.42 11.9942 12.8773 12.3958 13.2032C12.4336 13.2339 12.47 13.2634 12.5051 13.2916ZM12.5139 5.10645C12.5932 4.6999 12.9871 4.43463 13.3937 4.51395C14.2366 4.67841 15.1178 5.05715 15.7804 5.71974C16.443 6.38232 16.8217 7.26351 16.9862 8.10644C17.0655 8.51299 16.8002 8.90687 16.3937 8.98619C15.9871 9.06551 15.5932 8.80023 15.5139 8.39369C15.3907 7.76231 15.1193 7.17997 14.7197 6.7804C14.3201 6.38083 13.7378 6.10937 13.1064 5.98619C12.6999 5.90687 12.4346 5.51299 12.5139 5.10645Z" fill="white"/>
</svg>
