<svg width="22" height="22" viewBox="0 0 22 22" fill="none" xmlns="http://www.w3.org/2000/svg">
<path d="M11.002 6.38503C8.44808 6.38503 6.38807 8.4455 6.38807 11C6.38807 13.5546 8.44808 15.615 11.002 15.615C13.5559 15.615 15.616 13.5546 15.616 11C15.616 8.4455 13.5559 6.38503 11.002 6.38503ZM11.002 14.0004C9.35161 14.0004 8.00236 12.6548 8.00236 11C8.00236 9.3452 9.34759 7.99968 11.002 7.99968C12.6565 7.99968 14.0017 9.3452 14.0017 11C14.0017 12.6548 12.6524 14.0004 11.002 14.0004ZM16.8809 6.19625C16.8809 6.79472 16.399 7.27268 15.8047 7.27268C15.2064 7.27268 14.7285 6.79071 14.7285 6.19625C14.7285 5.60181 15.2104 5.11983 15.8047 5.11983C16.399 5.11983 16.8809 5.60181 16.8809 6.19625ZM19.9368 7.28874C19.8685 5.84682 19.5392 4.56957 18.4831 3.51724C17.4311 2.4649 16.1541 2.13556 14.7124 2.06326C13.2267 1.97891 8.77336 1.97891 7.28758 2.06326C5.84998 2.13154 4.57301 2.46089 3.5169 3.51323C2.46079 4.56555 2.13553 5.8428 2.06325 7.28473C1.97892 8.77084 1.97892 13.2252 2.06325 14.7113C2.13151 16.1532 2.46079 17.4304 3.5169 18.4827C4.57301 19.5351 5.84597 19.8645 7.28758 19.9368C8.77336 20.0211 13.2267 20.0211 14.7124 19.9368C16.1541 19.8685 17.4311 19.5391 18.4831 18.4827C19.5352 17.4304 19.8645 16.1532 19.9368 14.7113C20.0211 13.2252 20.0211 8.77486 19.9368 7.28874ZM18.0173 16.3059C17.7041 17.093 17.0978 17.6995 16.3067 18.0169C15.122 18.4868 12.3111 18.3783 11.002 18.3783C9.69293 18.3783 6.87798 18.4827 5.69739 18.0169C4.91032 17.7036 4.30396 17.0971 3.98673 16.3059C3.5169 15.121 3.62532 12.3094 3.62532 11C3.62532 9.69062 3.52091 6.87505 3.98673 5.69419C4.29994 4.90696 4.90631 4.30046 5.69739 3.98315C6.88199 3.51323 9.69293 3.62166 11.002 3.62166C12.3111 3.62166 15.1261 3.51724 16.3067 3.98315C17.0937 4.29644 17.7001 4.90294 18.0173 5.69419C18.4871 6.87906 18.3787 9.69062 18.3787 11C18.3787 12.3094 18.4871 15.1249 18.0173 16.3059Z" fill="white"/>
</svg>
