<svg width="22" height="22" viewBox="0 0 22 22" fill="none" xmlns="http://www.w3.org/2000/svg">
<path fill-rule="evenodd" clip-rule="evenodd" d="M11.2715 3C12.5643 3.00594 18.0837 3.05601 19.5952 3.47674C20.5418 3.73962 21.2872 4.51433 21.5402 5.49764C22 7.28057 22 10.9999 22 10.9999C22 10.9999 22 14.7194 21.5402 16.5021C21.2872 17.4856 20.5418 18.2604 19.5952 18.523C18.0837 18.944 12.5643 18.9941 11.2715 19H10.7272C9.43451 18.9941 3.91521 18.944 2.40373 18.523C1.45713 18.2604 0.711735 17.4856 0.458723 16.5021C0.0601728 14.9572 0.00704035 11.9573 0 11.1849V10.815C0.00704035 10.0425 0.0601728 7.04283 0.458723 5.49764C0.711735 4.51433 1.45713 3.73962 2.40373 3.47674C3.91521 3.05601 9.43451 3.00594 10.7272 3H11.2715ZM8.79934 7.57089V14.4289L14.5196 11.0001L8.79934 7.57089Z" fill="white"/>
</svg>
