<svg width="22" height="22" viewBox="0 0 22 22" fill="none" xmlns="http://www.w3.org/2000/svg">
<path d="M11.0018 6.8978C8.73162 6.8978 6.9005 8.72933 6.9005 11C6.9005 13.2707 8.73162 15.1022 11.0018 15.1022C13.2719 15.1022 15.1031 13.2707 15.1031 11C15.1031 8.72933 13.2719 6.8978 11.0018 6.8978ZM11.0018 13.667C9.53475 13.667 8.33542 12.4709 8.33542 11C8.33542 9.52906 9.53118 8.33304 11.0018 8.33304C12.4724 8.33304 13.6682 9.52906 13.6682 11C13.6682 12.4709 12.4688 13.667 11.0018 13.667ZM16.2274 6.73C16.2274 7.26197 15.7991 7.68682 15.2708 7.68682C14.739 7.68682 14.3142 7.2584 14.3142 6.73C14.3142 6.20161 14.7426 5.77318 15.2708 5.77318C15.7991 5.77318 16.2274 6.20161 16.2274 6.73ZM18.9438 7.7011C18.8831 6.41939 18.5904 5.28406 17.6516 4.34866C16.7165 3.41325 15.5814 3.1205 14.2999 3.05623C12.9793 2.98126 9.02075 2.98126 7.70006 3.05623C6.4222 3.11693 5.28712 3.40968 4.34835 4.34509C3.40959 5.28049 3.12047 6.41582 3.05622 7.69753C2.98126 9.01852 2.98126 12.9779 3.05622 14.2989C3.1169 15.5806 3.40959 16.7159 4.34835 17.6513C5.28712 18.5867 6.41863 18.8795 7.70006 18.9438C9.02075 19.0187 12.9793 19.0187 14.2999 18.9438C15.5814 18.8831 16.7165 18.5903 17.6516 17.6513C18.5868 16.7159 18.8795 15.5806 18.9438 14.2989C19.0187 12.9779 19.0187 9.02209 18.9438 7.7011ZM17.2376 15.7163C16.9592 16.416 16.4202 16.9551 15.717 17.2372C14.664 17.6549 12.1654 17.5585 11.0018 17.5585C9.83815 17.5585 7.33597 17.6513 6.28656 17.2372C5.58695 16.9587 5.04796 16.4196 4.76598 15.7163C4.34835 14.6631 4.44473 12.1639 4.44473 11C4.44473 9.8361 4.35192 7.33337 4.76598 6.28372C5.04439 5.58396 5.58338 5.04485 6.28656 4.7628C7.33954 4.34509 9.83815 4.44148 11.0018 4.44148C12.1654 4.44148 14.6676 4.34866 15.717 4.7628C16.4166 5.04128 16.9556 5.58039 17.2376 6.28372C17.6552 7.33694 17.5588 9.8361 17.5588 11C17.5588 12.1639 17.6552 14.6666 17.2376 15.7163Z" fill="white"/>
</svg>
