<svg width="22" height="22" viewBox="0 0 22 22" fill="none" xmlns="http://www.w3.org/2000/svg">
<path d="M11 3.5075C6.91063 3.5075 3.58625 6.83188 3.58062 10.9213C3.58062 12.3219 3.97438 13.6888 4.71688 14.8644L4.89125 15.1456L4.14312 17.8794L6.95 17.1425L7.22 17.3056C8.35625 17.9806 9.66125 18.3406 10.9944 18.3406H11C15.0838 18.3406 18.4981 15.0163 18.4981 10.9269C18.4981 8.94688 17.6431 7.085 16.2425 5.68438C14.8363 4.27813 12.98 3.5075 11 3.5075ZM15.3594 14.105C15.1738 14.6281 14.285 15.1006 13.8575 15.1625C13.1488 15.2694 12.5975 15.2131 11.1856 14.6056C8.9525 13.6381 7.49 11.3881 7.3775 11.2419C7.265 11.0956 6.46625 10.0325 6.46625 8.93563C6.46625 7.83875 7.04 7.29875 7.24813 7.07375C7.45063 6.84875 7.6925 6.7925 7.84438 6.7925C7.99063 6.7925 8.1425 6.7925 8.27188 6.79813C8.40688 6.80375 8.5925 6.7475 8.7725 7.18063C8.95813 7.625 9.4025 8.72188 9.45875 8.83438C9.515 8.94688 9.55437 9.07625 9.47562 9.2225C9.04812 10.0775 8.5925 10.0438 8.82313 10.4375C9.68375 11.9169 10.5444 12.4288 11.855 13.0869C12.08 13.1994 12.2094 13.1825 12.3388 13.0306C12.4681 12.8844 12.8956 12.3781 13.0419 12.1588C13.1881 11.9338 13.34 11.9731 13.5425 12.0463C13.745 12.1194 14.8419 12.6594 15.0669 12.7719C15.2919 12.8844 15.4381 12.9406 15.4944 13.0306C15.545 13.1375 15.545 13.5875 15.3594 14.105ZM10.9944 19.8425C9.49812 19.8425 8.03 19.4656 6.73063 18.7569L2 20L3.26563 15.3763C2.48375 14.0263 2.07312 12.4906 2.07312 10.9156C2.07875 5.99938 6.07812 2 10.9944 2C13.3794 2 15.6181 2.92812 17.3056 4.61563C18.9875 6.30313 20 8.54188 20 10.9269C20 15.8431 15.9106 19.8425 10.9944 19.8425Z" fill="white"/>
</svg>
