<svg width="22" height="22" viewBox="0 0 22 22" fill="none" xmlns="http://www.w3.org/2000/svg">
<path fill-rule="evenodd" clip-rule="evenodd" d="M12.8499 3.54759C12.8874 3.20974 13.1916 2.96628 13.5294 3.00382C14.9446 3.16105 16.2001 3.84406 17.1784 4.82137C18.158 5.7999 18.8373 7.05711 18.9961 8.47078C19.0341 8.80859 18.7911 9.1132 18.4533 9.15116C18.1156 9.18911 17.811 8.94604 17.773 8.60824C17.6495 7.50853 17.1183 6.50112 16.3087 5.69236C15.4978 4.88239 14.4918 4.34929 13.3936 4.22728C13.0558 4.18975 12.8123 3.88544 12.8499 3.54759ZM7.90903 4.4411C7.74904 4.30375 7.54427 4.229 7.33286 4.23108L7.32681 4.23114L5.09937 4.23111C4.60812 4.23171 4.18981 4.68663 4.23412 5.17607C4.2358 5.19469 4.23664 5.21337 4.23662 5.23206C4.2311 12.2514 9.70052 17.7717 16.7648 17.7661C16.7833 17.7661 16.802 17.767 16.8205 17.7686C16.8361 17.7701 16.9 17.7682 17.0257 17.6796C17.1494 17.5924 17.2823 17.4556 17.4118 17.2902C17.5383 17.1285 17.6448 16.9607 17.7205 16.8311C17.7386 16.8001 17.7547 16.7717 17.7687 16.7465V14.6753L17.7689 14.66C17.7742 14.4478 17.7012 14.2408 17.5634 14.0785C17.4782 13.9782 17.3 13.8455 17.0125 13.7077C16.7351 13.5747 16.3989 13.457 16.0449 13.3651C15.3077 13.1735 14.6252 13.1256 14.3159 13.1914C14.2579 13.2039 14.1446 13.2525 13.9801 13.3669C13.8247 13.475 13.662 13.6147 13.5094 13.76C13.3581 13.904 13.2257 14.0451 13.1306 14.1506C13.0835 14.203 13.0461 14.246 13.0211 14.2753C13.0087 14.2899 12.9992 14.3011 12.9932 14.3082L12.9869 14.3159L12.986 14.317C12.7757 14.5731 12.4005 14.617 12.137 14.4161L12.5101 13.9267C12.137 14.4161 12.137 14.4161 12.137 14.4161L12.1338 14.4136L12.1257 14.4074L12.0954 14.3841C12.0693 14.3639 12.0311 14.3342 11.9824 14.296C11.885 14.2197 11.7454 14.109 11.5749 13.9706C11.2342 13.6941 10.7684 13.3055 10.2681 12.8571C9.28851 11.9792 8.10351 10.8083 7.51987 9.78373C7.38252 9.54262 7.42347 9.23941 7.61985 9.04338C7.73354 8.9299 7.85866 8.81589 7.97397 8.71085C7.99323 8.69329 8.01222 8.67599 8.03083 8.659C8.16653 8.53502 8.29027 8.41972 8.40142 8.30213C8.62857 8.06184 8.75226 7.8634 8.79234 7.67581C8.85803 7.36834 8.81058 6.69061 8.61983 5.95675C8.52828 5.60454 8.41125 5.26964 8.27891 4.99297C8.14181 4.70633 8.00963 4.52745 7.90903 4.4411ZM12.44 13.0872C12.5076 13.0176 12.5817 12.9436 12.6607 12.8684C12.8394 12.6983 13.0522 12.5129 13.2773 12.3563C13.4935 12.2059 13.7657 12.05 14.0597 11.9875C14.6532 11.8611 15.5611 11.9674 16.3544 12.1736C16.7657 12.2806 17.1799 12.4228 17.5446 12.5976C17.8992 12.7676 18.2548 12.991 18.5016 13.2818C18.8331 13.6723 19.0102 14.1704 18.9995 14.6823V16.8991C18.9995 16.9926 18.9782 17.0849 18.9372 17.1689L18.3841 16.8991C18.9372 17.1689 18.9372 17.1689 18.9372 17.1689L18.9356 17.1721L18.933 17.1775L18.9242 17.1949C18.917 17.2093 18.9067 17.2292 18.8937 17.2537C18.8678 17.3029 18.8305 17.3712 18.7831 17.4521C18.6894 17.6126 18.5521 17.8301 18.3812 18.0486C18.2131 18.2635 17.995 18.5023 17.7348 18.6857C17.4831 18.8631 17.1415 19.0234 16.7418 18.9972C9.01382 18.9907 3.01328 12.9333 3.00587 5.25696C2.91454 4.05169 3.90206 3.00125 5.09844 3.00012H7.32405C7.83225 2.99592 8.32495 3.1759 8.71063 3.50699C8.99848 3.7541 9.22009 4.10825 9.38916 4.46173C9.563 4.82517 9.70454 5.23747 9.81099 5.64702C10.0162 6.43664 10.1225 7.34065 9.99593 7.93305C9.88591 8.44801 9.58051 8.8466 9.29574 9.14784C9.15094 9.30102 8.99801 9.44261 8.86087 9.5679C8.8572 9.57125 8.85355 9.57458 8.84992 9.5779C9.38655 10.3298 10.259 11.196 11.0895 11.9404C11.571 12.3719 12.0208 12.7473 12.3504 13.0147C12.3814 13.0399 12.4113 13.0641 12.44 13.0872ZM12.4472 6.36999C12.5124 6.03635 12.8355 5.81866 13.1691 5.88375C13.8607 6.01872 14.5837 6.32954 15.1274 6.87329C15.6711 7.41706 15.9818 8.14021 16.1168 8.83198C16.1818 9.16561 15.9642 9.48885 15.6306 9.55394C15.297 9.61903 14.9738 9.40134 14.9088 9.0677C14.8077 8.54956 14.5849 8.07165 14.2571 7.74374C13.9293 7.41583 13.4515 7.19306 12.9335 7.09197C12.5998 7.02687 12.3822 6.70363 12.4472 6.36999Z" fill="white"/>
</svg>
