<svg width="437" height="225" viewBox="0 0 437 225" fill="none" xmlns="http://www.w3.org/2000/svg">
<path fill-rule="evenodd" clip-rule="evenodd" d="M19.3357 1.05447C14.5261 2.65197 11.4079 4.46317 8.5815 7.30041C0.462471 15.4536 -2.17904 27.3788 1.87888 37.5625C3.8636 42.5439 107.406 194.863 113.04 201.089C132.732 222.851 162.484 230.533 189.858 220.923C198.732 217.807 210.154 210.533 216.128 204.191L218.434 201.745L222.903 205.772C238.116 219.481 254.671 225.51 274.741 224.654C289.424 224.027 299.896 220.496 312.468 211.931C322.958 204.784 325.369 201.535 380.412 120.387C409.345 77.7297 433.915 41.0224 435.011 38.8142C436.718 35.3767 437.003 33.708 437 27.1947C436.997 20.491 436.743 19.1056 434.853 15.5024C430.66 7.5093 426.092 3.58758 418.25 1.24896C408.776 -1.57548 399.155 0.448607 392.195 6.73216C389.52 9.14762 372.442 33.632 335.763 87.638C294.809 147.94 282.491 165.532 280.107 167.122C273.981 171.207 264.81 170.12 259.954 164.731C256.429 160.819 252.322 153.753 252.962 152.699C253.314 152.121 270.406 126.889 290.945 96.6275C311.484 66.3663 328.957 40.0748 329.772 38.2019C335.558 24.9185 329.457 8.80507 316.247 2.4807C312.469 0.671104 310.816 0.381378 304.291 0.381378C297.221 0.381378 296.394 0.558255 291.824 3.04735C289.132 4.51359 286.026 6.67453 284.923 7.84945C283.819 9.02436 259.704 44.2006 231.333 86.0189C202.961 127.837 178.66 163.209 177.33 164.622C174.087 168.069 170.515 169.656 165.998 169.656C161.486 169.656 157.917 168.072 154.652 164.622C153.315 163.209 129.012 127.837 100.646 86.0189C72.2807 44.2006 48.1707 9.02436 47.0692 7.84945C45.9676 6.67453 42.8638 4.5344 40.1712 3.09377C36.0193 0.871192 34.3103 0.437402 28.9006 0.234113C25.0969 0.0916506 21.2375 0.422195 19.3357 1.05447ZM130.651 33.2518C109.162 39.0567 106.719 70.0351 126.931 80.414L131.611 82.8175H165.941C199.488 82.8175 200.357 82.7775 204.015 81.0807C208.841 78.8422 214.701 72.9364 216.78 68.2175C220.37 60.0683 219.381 49.2804 214.43 42.5607C210.71 37.512 206.655 34.69 200.993 33.2094C194.407 31.487 137.055 31.5214 130.651 33.2518Z" fill="#DE1943"/>
</svg>
