<svg width="22" height="22" viewBox="0 0 22 22" fill="none" xmlns="http://www.w3.org/2000/svg">
<path fill-rule="evenodd" clip-rule="evenodd" d="M3.41566 10.3077H6.63383C6.77268 7.71857 7.67342 5.74179 8.57781 4.3852C8.76746 4.10073 8.9573 3.84344 9.14037 3.6133C6.04991 4.38887 3.70895 7.05305 3.41566 10.3077ZM11 3.61502C10.9719 3.64221 10.9428 3.6709 10.9126 3.70107C10.5932 4.02048 10.1621 4.50483 9.72988 5.15326C8.94527 6.33018 8.15708 8.04579 8.0207 10.3077H13.9793C13.8429 8.04579 13.0548 6.33018 12.2702 5.15326C11.8379 4.50483 11.4068 4.02048 11.0874 3.70107C11.0572 3.6709 11.0281 3.64221 11 3.61502ZM13.9793 11.6923H8.0207C8.15708 13.9542 8.94527 15.6698 9.72988 16.8468C10.1621 17.4951 10.5932 17.9795 10.9126 18.299C10.9428 18.3291 10.9719 18.3578 11 18.385C11.0281 18.3578 11.0572 18.3291 11.0874 18.299C11.4068 17.9795 11.8379 17.4951 12.2702 16.8468C13.0548 15.6698 13.8429 13.9542 13.9793 11.6923ZM9.14038 18.3867C8.9573 18.1565 8.76746 17.8993 8.57781 17.6148C7.67342 16.2582 6.77268 14.2814 6.63383 11.6923H3.41566C3.70895 14.947 6.04991 17.6112 9.14038 18.3867ZM12.8596 18.3867C13.0427 18.1565 13.2326 17.8993 13.4222 17.6148C14.3266 16.2582 15.2273 14.2814 15.3662 11.6923H18.5844C18.291 14.947 15.9501 17.6112 12.8596 18.3867ZM18.5844 10.3077H15.3662C15.2273 7.71857 14.3266 5.74179 13.4222 4.3852C13.2326 4.10073 13.0427 3.84344 12.8596 3.6133C15.9501 4.38887 18.291 7.05305 18.5844 10.3077ZM2 11C2 6.02943 6.02943 2 11 2C15.9706 2 20 6.02943 20 11C20 15.9706 15.9706 20 11 20C6.02943 20 2 15.9706 2 11Z" fill="white"/>
</svg>
