<svg width="22" height="22" viewBox="0 0 22 22" fill="none" xmlns="http://www.w3.org/2000/svg">
<path d="M15.9319 6.20695C15.0655 5.64504 14.4404 4.74566 14.2453 3.69789C14.2032 3.47157 14.1798 3.23843 14.1798 3H11.4146L11.4099 14.0238C11.3637 15.2585 10.3422 16.2491 9.09006 16.2491C8.70087 16.2491 8.33446 16.1525 8.01175 15.9834C7.27176 15.5962 6.76522 14.8247 6.76522 13.9372C6.76522 12.6621 7.80826 11.6246 9.08975 11.6246C9.32913 11.6246 9.55852 11.6641 9.77544 11.7314V8.9234C9.55072 8.89266 9.32258 8.87404 9.08975 8.87404C6.28333 8.87404 4 11.145 4 13.9372C4 15.65 4.86015 17.1659 6.17316 18.0823C6.99961 18.6601 8.00551 19 9.09006 19C11.8968 19 14.1798 16.7287 14.1798 13.9372V8.34689C15.2644 9.12116 16.5933 9.57751 18.0274 9.57751V6.82661C17.2549 6.82661 16.5356 6.59844 15.9319 6.20695Z" fill="white"/>
</svg>
