<svg width="22" height="22" viewBox="0 0 22 22" fill="none" xmlns="http://www.w3.org/2000/svg">
<path d="M16.4234 5.60782C15.4487 4.97567 14.7455 3.96387 14.526 2.78513C14.4786 2.53052 14.4523 2.26823 14.4523 2H11.3414L11.3361 14.4018C11.2842 15.7908 10.135 16.9052 8.72632 16.9052C8.28848 16.9052 7.87627 16.7966 7.51322 16.6063C6.68073 16.1707 6.11087 15.3028 6.11087 14.3043C6.11087 12.8699 7.28429 11.7027 8.72597 11.7027C8.99527 11.7027 9.25334 11.7471 9.49737 11.8228V8.66382C9.24456 8.62924 8.9879 8.60829 8.72597 8.60829C5.56875 8.60829 3 11.1631 3 14.3043C3 16.2312 3.96767 17.9366 5.44481 18.9676C6.37456 19.6176 7.5062 20 8.72632 20C11.8839 20 14.4523 17.4448 14.4523 14.3043V8.01525C15.6724 8.8863 17.1675 9.3997 18.7808 9.3997V6.30494C17.9118 6.30494 17.1025 6.04824 16.4234 5.60782Z" fill="white"/>
</svg>
