<svg width="22" height="22" viewBox="0 0 22 22" fill="none" xmlns="http://www.w3.org/2000/svg">
<path d="M11 4.34C7.365 4.34 4.41 7.295 4.405 10.93C4.405 12.175 4.755 13.39 5.415 14.435L5.57 14.685L4.905 17.115L7.4 16.46L7.64 16.605C8.65 17.205 9.81 17.525 10.995 17.525H11C14.63 17.525 17.665 14.57 17.665 10.935C17.665 9.175 16.905 7.52 15.66 6.275C14.41 5.025 12.76 4.34 11 4.34ZM14.875 13.76C14.71 14.225 13.92 14.645 13.54 14.7C12.91 14.795 12.42 14.745 11.165 14.205C9.18 13.345 7.88 11.345 7.78 11.215C7.68 11.085 6.97 10.14 6.97 9.165C6.97 8.19 7.48 7.71 7.665 7.51C7.845 7.31 8.06 7.26 8.195 7.26C8.325 7.26 8.46 7.26 8.575 7.265C8.695 7.27 8.86 7.22 9.02 7.605C9.185 8 9.58 8.975 9.63 9.075C9.68 9.175 9.715 9.29 9.645 9.42C9.265 10.18 8.86 10.15 9.065 10.5C9.83 11.815 10.595 12.27 11.76 12.855C11.96 12.955 12.075 12.94 12.19 12.805C12.305 12.675 12.685 12.225 12.815 12.03C12.945 11.83 13.08 11.865 13.26 11.93C13.44 11.995 14.415 12.475 14.615 12.575C14.815 12.675 14.945 12.725 14.995 12.805C15.04 12.9 15.04 13.3 14.875 13.76ZM10.995 18.86C9.665 18.86 8.36 18.525 7.205 17.895L3 19L4.125 14.89C3.43 13.69 3.065 12.325 3.065 10.925C3.07 6.555 6.625 3 10.995 3C13.115 3 15.105 3.825 16.605 5.325C18.1 6.825 19 8.815 19 10.935C19 15.305 15.365 18.86 10.995 18.86Z" fill="white"/>
</svg>
