<svg width="22" height="22" viewBox="0 0 22 22" fill="none" xmlns="http://www.w3.org/2000/svg">
<path fill-rule="evenodd" clip-rule="evenodd" d="M1.25 5C1.25 4.0335 2.0335 3.25 3 3.25H19C19.9665 3.25 20.75 4.0335 20.75 5V17C20.75 17.9665 19.9665 18.75 19 18.75H3C2.0335 18.75 1.25 17.9665 1.25 17V5ZM3.81066 4.75L10.1161 11.0555C10.6043 11.5436 11.3957 11.5436 11.8839 11.0555L18.1893 4.75H3.81066ZM19.25 5.81066L12.9445 12.1161C11.8706 13.1901 10.1294 13.1901 9.05546 12.1161L2.75 5.81066V17C2.75 17.1381 2.86193 17.25 3 17.25H19C19.1381 17.25 19.25 17.1381 19.25 17V5.81066Z" fill="white"/>
</svg>
