<svg width="22" height="22" viewBox="0 0 22 22" fill="none" xmlns="http://www.w3.org/2000/svg">
<path fill-rule="evenodd" clip-rule="evenodd" d="M12.4655 2.58182C12.5054 2.22285 12.8286 1.96418 13.1875 2.00406C14.6911 2.17112 16.0251 2.89682 17.0646 3.93521C18.1054 4.9749 18.8271 6.31069 18.9959 7.81271C19.0362 8.17163 18.778 8.49528 18.4191 8.53561C18.0603 8.57594 17.7367 8.31767 17.6963 7.95876C17.5651 6.79032 17.0007 5.71994 16.1405 4.86064C15.2789 4.00004 14.21 3.43363 13.0432 3.30399C12.6843 3.26411 12.4256 2.94078 12.4655 2.58182ZM7.21585 3.53117C7.04586 3.38524 6.82829 3.30582 6.60366 3.30803L6.59724 3.30809L4.23058 3.30806C3.70863 3.3087 3.26417 3.79205 3.31125 4.31208C3.31304 4.33186 3.31393 4.35171 3.31391 4.37157C3.30804 11.8296 9.1193 17.6949 16.6251 17.689C16.6448 17.689 16.6646 17.6899 16.6843 17.6917C16.7009 17.6932 16.7688 17.6912 16.9023 17.5971C17.0337 17.5044 17.175 17.3591 17.3125 17.1833C17.4469 17.0115 17.5601 16.8333 17.6405 16.6956C17.6598 16.6626 17.6769 16.6324 17.6918 16.6057V14.405L17.692 14.3888C17.6976 14.1633 17.62 13.9434 17.4736 13.7709C17.3831 13.6643 17.1938 13.5234 16.8883 13.3769C16.5936 13.2356 16.2363 13.1106 15.8602 13.0129C15.0769 12.8093 14.3518 12.7585 14.0231 12.8284C13.9615 12.8416 13.8411 12.8933 13.6664 13.0148C13.5013 13.1297 13.3284 13.2781 13.1662 13.4325C13.0055 13.5855 12.8648 13.7354 12.7638 13.8475C12.7137 13.9032 12.674 13.9489 12.6474 13.98C12.6342 13.9955 12.6242 14.0074 12.6178 14.015L12.6111 14.0231L12.6101 14.0243C12.3867 14.2964 11.988 14.3431 11.7081 14.1296L12.1045 13.6096C11.7081 14.1296 11.7081 14.1296 11.7081 14.1296L11.7047 14.127L11.6961 14.1204L11.6639 14.0956C11.6361 14.0741 11.5955 14.0426 11.5438 14.002C11.4403 13.9209 11.292 13.8033 11.1108 13.6563C10.7488 13.3625 10.2539 12.9496 9.72235 12.4732C8.68154 11.5404 7.42248 10.2963 6.80236 9.20772C6.65643 8.95154 6.69994 8.62938 6.90859 8.4211C7.02939 8.30052 7.16233 8.17939 7.28484 8.06778C7.30531 8.04913 7.32548 8.03075 7.34526 8.01269C7.48944 7.88096 7.62091 7.75846 7.73901 7.63352C7.98036 7.37821 8.11178 7.16737 8.15436 6.96805C8.22416 6.64137 8.17374 5.92128 7.97107 5.14155C7.8738 4.76733 7.74945 4.4115 7.60884 4.11754C7.46317 3.81298 7.32273 3.62292 7.21585 3.53117ZM12.03 12.7177C12.1018 12.6437 12.1806 12.5651 12.2645 12.4852C12.4544 12.3044 12.6805 12.1075 12.9196 11.9411C13.1493 11.7813 13.4386 11.6156 13.7509 11.5492C14.3815 11.4149 15.3462 11.5279 16.1891 11.747C16.6261 11.8606 17.0661 12.0117 17.4536 12.1975C17.8304 12.3781 18.2082 12.6154 18.4705 12.9244C18.8227 13.3393 19.0108 13.8686 18.9995 14.4125V16.7678C18.9995 16.8672 18.9768 16.9652 18.9333 17.0545L18.3456 16.7678C18.9333 17.0545 18.9333 17.0545 18.9333 17.0545L18.9316 17.0579L18.9288 17.0636L18.9195 17.0821C18.9118 17.0974 18.9009 17.1185 18.8871 17.1446C18.8595 17.1968 18.8199 17.2694 18.7696 17.3554C18.67 17.5259 18.5241 17.757 18.3425 17.9892C18.1639 18.2175 17.9322 18.4712 17.6557 18.6661C17.3883 18.8546 17.0254 19.0249 16.6007 18.997C8.38968 18.9901 2.01411 12.5541 2.00623 4.39802C1.9092 3.11742 2.95844 2.00133 4.22959 2.00013L6.5943 2.00013C7.13427 1.99567 7.65776 2.1869 8.06755 2.53868C8.37339 2.80123 8.60885 3.17752 8.78848 3.55309C8.97319 3.93925 9.12358 4.37732 9.23668 4.81246C9.45475 5.65144 9.56766 6.61195 9.43318 7.24137C9.31628 7.78852 8.99179 8.21202 8.68923 8.53209C8.53538 8.69484 8.37289 8.84528 8.22718 8.9784C8.22328 8.98196 8.2194 8.9855 8.21554 8.98903C8.78571 9.78792 9.71266 10.7083 10.5951 11.4992C11.1067 11.9577 11.5846 12.3565 11.9348 12.6406C11.9677 12.6674 11.9995 12.6931 12.03 12.7177ZM12.0377 5.58062C12.1069 5.22613 12.4502 4.99483 12.8047 5.06399C13.5395 5.20739 14.3077 5.53764 14.8854 6.11538C15.463 6.69313 15.7932 7.46148 15.9366 8.19648C16.0057 8.55097 15.7745 8.89441 15.42 8.96357C15.0656 9.03273 14.7222 8.80143 14.6531 8.44694C14.5457 7.89641 14.309 7.38863 13.9607 7.04023C13.6124 6.69182 13.1047 6.45513 12.5543 6.34772C12.1998 6.27855 11.9686 5.93511 12.0377 5.58062Z" fill="white"/>
</svg>
