<svg width="22" height="22" viewBox="0 0 22 22" fill="none" xmlns="http://www.w3.org/2000/svg">
<path d="M11 4.42375C7.365 4.42375 4.41 7.56344 4.405 11.4256C4.405 12.7484 4.755 14.0394 5.415 15.1497L5.57 15.4153L4.905 17.9972L7.4 17.3012L7.64 17.4553C8.65 18.0928 9.81 18.4328 10.995 18.4328H11C14.63 18.4328 17.665 15.2931 17.665 11.4309C17.665 9.56094 16.905 7.8025 15.66 6.47969C14.41 5.15156 12.76 4.42375 11 4.42375ZM14.875 14.4325C14.71 14.9266 13.92 15.3728 13.54 15.4312C12.91 15.5322 12.42 15.4791 11.165 14.9053C9.18 13.9916 7.88 11.8666 7.78 11.7284C7.68 11.5903 6.97 10.5862 6.97 9.55031C6.97 8.51437 7.48 8.00438 7.665 7.79188C7.845 7.57938 8.06 7.52625 8.195 7.52625C8.325 7.52625 8.46 7.52625 8.575 7.53156C8.695 7.53687 8.86 7.48375 9.02 7.89281C9.185 8.3125 9.58 9.34844 9.63 9.45469C9.68 9.56094 9.715 9.68313 9.645 9.82125C9.265 10.6288 8.86 10.5969 9.065 10.9688C9.83 12.3659 10.595 12.8494 11.76 13.4709C11.96 13.5772 12.075 13.5613 12.19 13.4178C12.305 13.2797 12.685 12.8016 12.815 12.5944C12.945 12.3819 13.08 12.4191 13.26 12.4881C13.44 12.5572 14.415 13.0672 14.615 13.1734C14.815 13.2797 14.945 13.3328 14.995 13.4178C15.04 13.5188 15.04 13.9438 14.875 14.4325ZM10.995 19.8513C9.665 19.8513 8.36 19.4953 7.205 18.8259L3 20L4.125 15.6331C3.43 14.3581 3.065 12.9078 3.065 11.4203C3.07 6.77719 6.625 3 10.995 3C13.115 3 15.105 3.87656 16.605 5.47031C18.1 7.06406 19 9.17844 19 11.4309C19 16.0741 15.365 19.8513 10.995 19.8513Z" fill="white"/>
</svg>
