<svg width="990" height="56" viewBox="0 0 990 56" fill="none" xmlns="http://www.w3.org/2000/svg">
<g clip-path="url(#clip0_2640_74)">
<path d="M623.9 56C618.3 53.7 614.6 49.5 611.4 44.5C604.8 34.3 597.8 24.4 590.9 14.4C587.9 10 588.3 6.00002 591.9 3.40002C595.5 0.800017 600.3 1.60002 603.2 5.80002C610.5 16.3 617.6 27 624.8 37.6C627.8 41.9 630.1 42 632 37.9C632.5 36.8 631.9 34.8 631.2 33.6C627 27.2 622.6 20.9 618.3 14.6C615.3 10.1 615.5 6.20002 619 3.60002C622.8 0.800017 627.6 1.70002 630.6 6.10002C634.4 11.5 638.1 17.1 642.2 23.1C646.1 17.4 649.7 12.1 653.4 6.80002C656.8 2.00002 661.3 0.700017 665.2 3.40002C669 6.10002 669.2 10.2 665.9 15.2C661.9 21.1 658.1 27.2 653.8 32.9C650.8 36.9 652.2 39 656.3 41.3C657.7 39.7 659.1 38.1 660.3 36.4C667.3 26.3 674.1 16 681.2 5.90002C684.7 0.800017 691.9 0.400017 694.3 5.50002C695.3 7.70002 695.2 11.6 693.9 13.7C686.3 25.6 678.4 37.4 670.1 48.8C667.9 51.8 664.1 53.6 661 56C657.7 56 654.3 56 651 56C648.1 54.2 645.1 52.3 642.5 50.7C639.2 52.5 636.1 54.3 633 56C629.9 56 626.9 56 623.9 56Z" fill="white"/>
<path d="M989.9 34C987.7 38.4 986 43.0999 983.2 47.0999C979.5 52.3999 973.7 54.7999 967.2 54.7999C954.9 54.7999 942.5 54.8999 930.2 54.7999C923.6 54.7999 921.2 52.2 921.1 45.7C921.1 34.5 921.1 23.4 921.1 12.2C921.1 5.59995 923.5 3.19995 930.2 3.19995C941.7 3.19995 953.2 3.19995 964.7 3.19995C977.2 3.19995 985 8.99995 988.7 20.9C989 22 989.5 23 989.9 24.1C989.9 27.3 989.9 30.7 989.9 34ZM936.6 40.9C947.6 40.9 958.1 41.1999 968.7 40.7999C973.6 40.5999 976.7 35.6999 976.7 29.7999C976.7 23.9999 973.8 19.3 969.1 19.1C958.4 18.7 947.6 19 936.7 19C936.6 26.4 936.6 33.3 936.6 40.9Z" fill="white"/>
<path d="M371 0C375 2.4 376.2 5.9 376.1 10.5C375.8 22 376 33.5 376 45C376 51.3 373.4 54.7 368.6 54.8C363.6 55 360.7 51.4 360.5 45C360.4 41.9 360.5 38.8 360.5 35.4C349.7 35.4 339.6 35.4 328.8 35.4C328.8 39 328.9 42.4 328.8 45.9C328.5 51.5 325.4 54.9 320.8 54.8C316.1 54.7 313.3 51.3 313.2 45.6C313.1 34.1 313.4 22.6 313.1 11.1C313 6.4 314 2.6 318 0C320 0 322 0 324 0C331.3 4.9 327.8 12.9 329.2 19.4C339.7 19.4 349.8 19.4 360.4 19.4C360.4 16.2 360.5 13.4 360.4 10.6C360.1 6 361.6 2.3 366 0C367.6 0 369.3 0 371 0Z" fill="white"/>
<path d="M838.9 56C832.9 50.7 826.8 45.6 821.1 40.1C818.6 37.7 816.1 36.5 812.7 37C811.2 37.2 809.7 37.1 808.2 36.9C803 36.4 800.4 33.9 800.5 29.6C800.5 25.1 803.4 22.3 808.7 22.2C815.4 22.1 822 22.3 828.7 22.1C830.6 22 832.4 20.8 834.2 20.2C834 19.8 833.9 19.3 833.7 18.9C820.5 18.9 807.3 18.9 794.1 18.9C792.3 18.9 790.4 18.9 788.6 18.5C784.5 17.6 782.3 14.9 782.5 10.7C782.7 6.40002 785.2 3.50002 789.3 3.40002C804.1 3.10002 818.9 3.00002 833.7 3.50002C841 3.70002 846.4 9.30002 848.1 16.1C849.8 23.1 847.4 29.6 841.4 34.1C840.6 34.7 839.8 35.2 838.2 36.2C841.6 39.4 845.4 41.8 847.7 45.2C850.7 49.7 847.7 53.3 843.9 56.1C842.2 56 840.6 56 838.9 56Z" fill="white"/>
<path d="M0 4.99996C6.9 -1.20004 10.6 -0.700037 15.9 7.19996C22.3 16.6 28.6 25.9 35 35.3C36.2 37 37.7 38.6 39.5 40.8C41.3 38.8 42.8 37.3 43.9 35.6C50.8 25.6 57.6 15.5 64.5 5.49996C67.7 0.899964 72.1 -0.400036 76 2.09996C80 4.59996 80.4 8.89996 77.1 13.8C69.7 24.8 62.2 35.9 54.7 46.9C47 58.1 32.4 57.9 24.7 46.6C16.5 34.7 8.2 22.9 0 11C0 8.99996 0 6.99996 0 4.99996Z" fill="white"/>
<path d="M268 56C263.1 53.5 261.7 49.5 261.9 44.2C262.3 35.4 262 26.5 261.9 17.7C261.9 17.4 261.7 17.1 261.3 16.2C253.8 16.2 246 16.3 238.2 16.2C231.9 16 228.1 10.1 231.3 5.20002C232.6 3.20002 235.7 1.20002 238 1.10002C259.2 0.800024 280.3 0.900024 301.5 1.00002C306.1 1.00002 309.1 4.30002 309.1 8.60002C309.1 12.8 306.1 16 301.5 16.2C297.5 16.4 293.5 16.3 289.5 16.3C285.7 16.3 281.9 16.3 277.4 16.3C277.4 26.1 277.2 35.4 277.5 44.7C277.7 50.1 276 54 270.9 56.2C270 56 269 56 268 56Z" fill="white"/>
<path d="M868.9 0C872.7 2.3 874.1 5.5 874 10C873.7 17.6 874.3 25.3 873.8 32.9C873.5 38.2 875.5 39.4 880.4 39.2C889.7 38.9 899 39.1 908.3 39.1C914.3 39.1 917.8 42.1 917.7 46.9C917.6 51.8 914.3 54.6 908.1 54.7C898 54.8 887.8 54.8 877.7 54.7C865.9 54.5 858.7 47.5 858.4 35.8C858.2 27 858 18.1 858.6 9.4C858.8 6.2 861.4 3.1 862.9 0C864.9 0 866.9 0 868.9 0Z" fill="white"/>
<path d="M787.9 56C783.9 53.6 782.4 50.2 782.7 45.6C783 40.5 782.7 35.3 782.8 30.1C782.9 25.3 786.1 22 790.4 22C794.7 22 797.9 25.3 798 30.1C798.1 35.3 797.8 40.4 798.1 45.6C798.4 50.2 796.9 53.7 792.9 56C791.2 56 789.6 56 787.9 56Z" fill="white"/>
<path d="M735.9 3.19995C738.7 3.19995 741.6 3.19995 744.4 3.19995C760.9 3.19995 771.9 15.8 769.8 32.2C768.4 43.3 760.7 55.8 744.3 54.9C738.8 54.6 733.3 54.4 727.8 54.9C706.1 57 697.6 34.0999 702.7 19.9C706.6 8.89995 714.2 3.19995 725.9 3.19995C729.2 3.19995 732.5 3.19995 735.9 3.19995ZM735.8 18.8C732.1 18.8 728.5 18.7 724.8 18.8C718.9 19 715.6 22.7999 715.4 29.2999C715.2 35.7999 718.3 40.4999 723.8 40.7999C731.6 41.1999 739.4 41.1999 747.2 40.7999C752.8 40.4999 755.9 35.8999 755.6 29.2999C755.4 22.7999 752 18.9 746.2 18.7C742.8 18.7 739.3 18.8 735.8 18.8Z" fill="white"/>
<path d="M196.5 54C193.3 54 190.1 53.7 187 54.1C171.1 56 161.7 40.5 162.3 27.3C162.7 19.2 165.6 11.8 172.5 7.10002C175.7 4.90002 180 3.50002 183.9 3.10002C191.2 2.50002 198.5 2.90002 205.9 2.90002C219.5 2.90002 227.5 9.50002 230.2 22.9C231.9 31.6 230 39.5 224.5 46.3C220.4 51.3 215.2 54.2 208.5 54C204.5 53.9 200.5 54 196.5 54ZM196.8 16.2C193.3 16.2 189.8 16.1 186.3 16.2C180.3 16.4 176.8 20.1 176.5 26.5C176.1 33.3 179 38.1 184.9 38.5C192.7 39 200.5 39 208.2 38.5C214 38.1 217.2 32.8 216.7 26.5C216.2 20.1 212.7 16.5 206.7 16.3C203.4 16.1 200.1 16.2 196.8 16.2Z" fill="white"/>
<path d="M135 31C135 23.1 134.9 16.4 135 9.8C135.1 4.4 137.9 1.2 142.5 1.1C147.1 1 150.4 4.1 150.4 9.4C150.5 21.6 150.7 33.7 150.3 45.9C150.2 48.4 148.2 52.1 146.1 52.9C143.8 53.8 139.8 53 137.6 51.4C127.2 43.4 117.1 34.9 106.9 26.6C105.9 25.8 104.8 25 102.9 23.6C102.9 31.1 102.9 37.9 102.9 44.6C102.9 50.8 100.2 54.2 95.3001 54.2C90.4001 54.2 87.5 50.9 87.5 44.7C87.4 33.7 87.4 22.7 87.5 11.7C87.6 7.9 87.8 3.8 92.1 2C96.2 0.200004 99.4 2.1 102.5 4.7C113 13.2 123.6 21.7 135 31Z" fill="white"/>
<path d="M429.5 54C424.3 54 419.2 54 414 54C401.2 54 393.9 48.5 390.7 36C388.1 25.6 390.2 16.2 397.9 8.40005C401.6 4.70005 406 2.80005 411.3 2.80005C424 2.90005 436.6 2.80005 449.3 2.80005C454.5 2.80005 457.4 5.30005 457.3 9.50005C457.2 13.7 454.4 16.1 449.1 16.1C437.8 16.2 426.4 16.1 415.1 16.1C407.8 16.1 403.9 19.9001 403.8 27.1C403.7 34.4001 407.6 38.6001 415.1 38.7001C426.3 38.8001 437.4 38.7001 448.6 38.7001C454.5 38.7001 457.8 41.4 457.8 46.1C457.9 51 454.5 53.8 448.4 53.8C442.2 54 435.8 54 429.5 54Z" fill="white"/>
<path d="M518.4 17.5C516.6 17.1 514.9 16.2 513.1 16.2C500.4 16.1 487.8 16.4 475.1 15.9C472.5 15.8 469 13.5 467.8 11.3C466.8 9.30002 467.7 5.30002 469.2 3.30002C470.5 1.60002 473.8 0.900024 476.3 0.900024C489.3 0.700024 502.3 0.800024 515.3 0.800024C523.6 0.800024 529.9 5.10002 532.3 12.2C534.8 19.7 532.3 26.7 525.4 31.9C524.7 32.4 524 32.8 523.1 33.5C525.6 35.7 528 37.8 530.2 39.9C533.7 43.3 534.1 48 531.3 51C528.4 54.1 523.8 54.2 520.2 51C515.3 46.7 510.8 42 505.7 38C503.3 36.1 500 35.4 496.9 34.5C495 34 492.9 34.3 491 34C487 33.3 484.7 30.9 484.9 26.8C485.2 22.5 487.7 20 492 19.9C499.2 19.7 506.3 19.8 513.5 19.8C514.9 19.8 516.4 19.6 517.8 19.5C518 18.9 518.2 18.2 518.4 17.5Z" fill="white"/>
<path d="M428.3 19.8001C431.5 19.8001 434.6 19.7001 437.8 19.8001C442.1 20.0001 444.9 23.0001 445 27.2001C445.1 31.4001 442.5 34.7001 438.2 34.9001C431.6 35.2001 424.9 35.2001 418.3 34.9001C414.1 34.7001 411.2 31.2001 411.2 27.3001C411.2 23.1001 414.3 20.1001 418.9 19.8001C419.2 19.8001 419.6 19.8001 419.9 19.8001C422.6 19.8001 425.5 19.8001 428.3 19.8001Z" fill="white"/>
<path d="M466.8 38.1C466.8 34.8 466.6 31.4 466.8 28.1C467.1 23.8 469.8 21.5 473.9 21.1C477.9 20.7 481.7 23.6 481.9 27.6C482.2 34.6 482.3 41.6 481.8 48.5C481.5 52.7 478.3 54.9 474.1 54.7C470.1 54.5 467.1 52.4 466.8 48C466.6 44.7 466.8 41.4 466.8 38.1Z" fill="white"/>
<path d="M39.9001 6.6C42.1001 6.6 44.3001 6.4 46.4001 6.7C50.4001 7.2 52.6001 9.9 52.9001 13.8C53.2001 17.7 51.3001 21 47.3001 21.5C42.4001 22.2 37.3001 22.3 32.4001 21.6C28.3001 21.1 26.3001 17.7 26.7001 13.5C27.1001 9.6 29.3001 7.1 33.4001 6.6C35.5001 6.4 37.7001 6.6 39.9001 6.6Z" fill="white"/>
</g>
<defs>
<clipPath id="clip0_2640_74">
<rect width="989.9" height="56" fill="white"/>
</clipPath>
</defs>
</svg>
