<svg width="87" height="87" viewBox="0 0 87 87" fill="none" xmlns="http://www.w3.org/2000/svg">
<g clip-path="url(#clip0_2642_71)">
<path d="M43.5 87C67.5244 87 87 67.5244 87 43.5C87 19.4756 67.5244 0 43.5 0C19.4756 0 0 19.4756 0 43.5C0 67.5244 19.4756 87 43.5 87Z" fill="#DE1943"/>
<path fill-rule="evenodd" clip-rule="evenodd" d="M50.1213 29.8787C51.2929 31.0503 51.2929 32.9497 50.1213 34.1213L40.2426 44L50.1213 53.8787C51.2929 55.0503 51.2929 56.9497 50.1213 58.1213C48.9497 59.2929 47.0503 59.2929 45.8787 58.1213L33.8787 46.1213C32.7071 44.9497 32.7071 43.0503 33.8787 41.8787L45.8787 29.8787C47.0503 28.7071 48.9497 28.7071 50.1213 29.8787Z" fill="white"/>
</g>
<defs>
<clipPath id="clip0_2642_71">
<rect width="87" height="87" fill="white"/>
</clipPath>
</defs>
</svg>
