<svg width="351" height="53" viewBox="0 0 351 53" fill="none" xmlns="http://www.w3.org/2000/svg">
<path fill-rule="evenodd" clip-rule="evenodd" d="M4.51313 0.248387C3.39053 0.624687 2.66272 1.05132 2.003 1.71965C0.107945 3.64018 -0.508609 6.44923 0.438548 8.84805C0.901801 10.0214 25.0697 45.901 26.3846 47.3675C30.9809 52.4938 37.9252 54.3032 44.3146 52.0396C46.386 51.3057 49.052 49.5921 50.4463 48.0984L50.9845 47.5221L52.0276 48.4708C55.5785 51.6999 59.4427 53.1202 64.1271 52.9185C67.5544 52.7709 69.9987 51.9391 72.933 49.9215C75.3815 48.2379 75.9443 47.4727 88.7917 28.3578C95.5451 18.3097 101.28 9.66305 101.536 9.1429C101.934 8.33318 102.001 7.9401 102 6.40587C101.999 4.82677 101.94 4.50043 101.499 3.65168C100.52 1.76886 99.4539 0.845075 97.6236 0.294199C95.4123 -0.371113 93.1666 0.105672 91.542 1.5858C90.9176 2.15477 86.9314 7.92219 78.3704 20.6436C68.8113 34.8482 65.936 38.992 65.3797 39.3666C63.9498 40.3289 61.8092 40.0727 60.6758 38.8033C59.8529 37.8818 58.8944 36.2173 59.0438 35.9692C59.126 35.8329 63.1154 29.8894 67.9094 22.7612C72.7034 15.6329 76.7817 9.43983 76.972 8.99868C78.3225 5.8697 76.8984 2.07408 73.815 0.584342C72.9332 0.158082 72.5475 0.0898356 71.0244 0.0898356C69.3741 0.0898356 69.1812 0.1315 68.1146 0.717819C67.4861 1.0632 66.7613 1.57222 66.5038 1.84898C66.2462 2.12574 60.6174 10.4117 53.9953 20.2622C47.3731 30.1128 41.701 38.4447 41.3905 38.7777C40.6335 39.5896 39.7998 39.9633 38.7455 39.9633C37.6923 39.9633 36.8594 39.5904 36.0973 38.7777C35.7851 38.4447 30.1126 30.1128 23.4918 20.2622C16.871 10.4117 11.2435 2.12574 10.9864 1.84898C10.7293 1.57222 10.0048 1.0681 9.37636 0.728754C8.40724 0.205214 8.00836 0.103032 6.74567 0.0551466C5.85786 0.0215888 4.95703 0.0994504 4.51313 0.248387ZM30.4951 7.83264C25.4795 9.20003 24.9093 16.4972 29.6268 18.942L30.7193 19.5081H38.7323C46.5624 19.5081 46.7653 19.4987 47.6191 19.099C48.7454 18.5717 50.1132 17.1806 50.5984 16.069C51.4364 14.1494 51.2057 11.6083 50.05 10.0254C49.1817 8.83617 48.2353 8.17142 46.9136 7.82265C45.3765 7.41694 31.99 7.42505 30.4951 7.83264Z" fill="#DE1943"/>
<path d="M279.194 0C280.964 1.06217 281.495 2.61117 281.451 4.647C281.318 9.73658 281.407 14.8261 281.407 19.9157C281.407 22.7039 280.256 24.2087 278.132 24.2529C275.919 24.3414 274.635 22.7482 274.547 19.9157C274.502 18.5437 274.547 17.1718 274.547 15.667C269.767 15.667 265.297 15.667 260.517 15.667C260.517 17.2603 260.561 18.765 260.517 20.314C260.384 22.7924 259.012 24.2972 256.977 24.2529C254.897 24.2087 253.657 22.7039 253.613 20.1813C253.569 15.0917 253.702 10.0021 253.569 4.91254C253.525 2.83246 253.967 1.15069 255.737 0C256.623 0 257.508 0 258.393 0C261.624 2.1686 260.075 5.70917 260.694 8.58589C265.341 8.58589 269.811 8.58589 274.502 8.58589C274.502 7.16966 274.547 5.93046 274.502 4.69126C274.37 2.65543 275.034 1.01791 276.981 0C277.689 0 278.441 0 279.194 0Z" fill="white"/>
<path d="M115 2.21283C118.054 -0.531116 119.691 -0.30983 122.037 3.18649C124.869 7.34666 127.658 11.4626 130.49 15.6227C131.021 16.3751 131.685 17.0832 132.482 18.0569C133.278 17.1717 133.942 16.5079 134.429 15.7555C137.483 11.3298 140.492 6.85983 143.546 2.43411C144.962 0.398285 146.909 -0.177058 148.635 0.92937C150.406 2.0358 150.583 3.93886 149.122 6.10746C145.847 10.9757 142.528 15.8883 139.209 20.7566C135.801 25.7134 129.339 25.6249 125.932 20.6238C122.302 15.3572 118.629 10.1349 115 4.86826C115 3.98311 115 3.09797 115 2.21283Z" fill="white"/>
<path d="M233.609 24.784C231.44 23.6776 230.821 21.9073 230.909 19.5617C231.086 15.667 230.954 11.7281 230.909 7.83352C230.909 7.70075 230.821 7.56798 230.644 7.16966C227.325 7.16966 223.872 7.21392 220.42 7.16966C217.632 7.08115 215.95 4.46997 217.367 2.30137C217.942 1.41623 219.314 0.531087 220.332 0.48683C229.714 0.354058 239.053 0.398315 248.435 0.442573C250.471 0.442573 251.799 1.90306 251.799 3.80612C251.799 5.66492 250.471 7.08115 248.435 7.16966C246.665 7.25817 244.895 7.21392 243.124 7.21392C241.443 7.21392 239.761 7.21392 237.769 7.21392C237.769 11.5511 237.681 15.667 237.813 19.7829C237.902 22.1728 237.15 23.8989 234.893 24.8725C234.494 24.784 234.052 24.784 233.609 24.784Z" fill="white"/>
<path d="M201.965 23.8989C200.549 23.8989 199.133 23.7661 197.761 23.9431C190.724 24.784 186.564 17.9241 186.829 12.0822C187.006 8.49737 188.29 5.22234 191.343 3.14225C192.76 2.1686 194.663 1.549 196.389 1.37197C199.619 1.10642 202.85 1.28345 206.125 1.28345C212.144 1.28345 215.685 4.20442 216.88 10.1349C217.632 13.9853 216.791 17.4816 214.357 20.4911C212.543 22.7039 210.241 23.9874 207.276 23.8989C205.506 23.8546 203.735 23.8989 201.965 23.8989ZM202.098 7.16965C200.549 7.16965 199 7.1254 197.451 7.16965C194.795 7.25817 193.246 8.89568 193.114 11.7281C192.937 14.7376 194.22 16.862 196.831 17.039C200.283 17.2603 203.735 17.2603 207.143 17.039C209.71 16.862 211.126 14.5163 210.905 11.7281C210.684 8.89568 209.135 7.30242 206.479 7.21391C205.019 7.1254 203.558 7.16965 202.098 7.16965Z" fill="white"/>
<path d="M174.747 13.7197C174.747 10.2234 174.703 7.25816 174.747 4.33719C174.791 1.9473 176.031 0.531075 178.067 0.486818C180.102 0.442561 181.563 1.81453 181.563 4.16016C181.607 9.55953 181.696 14.9147 181.519 20.314C181.474 21.4205 180.589 23.058 179.66 23.412C178.642 23.8103 176.872 23.4563 175.898 22.7482C171.295 19.2076 166.825 15.4457 162.311 11.7724C161.868 11.4183 161.382 11.0643 160.541 10.4447C160.541 13.764 160.541 16.7735 160.541 19.7387C160.541 22.4826 159.346 23.9874 157.177 23.9874C155.009 23.9874 153.725 22.5269 153.725 19.7829C153.681 14.9147 153.681 10.0464 153.725 5.17808C153.769 3.4963 153.858 1.68176 155.761 0.885132C157.575 0.0885034 158.992 0.929389 160.364 2.08008C165.011 5.84193 169.702 9.60379 174.747 13.7197Z" fill="white"/>
<path d="M305.084 23.8989C302.783 23.8989 300.526 23.8989 298.225 23.8989C292.56 23.8989 289.329 21.4647 287.913 15.9326C286.762 11.3298 287.691 7.16966 291.099 3.7176C292.737 2.08008 294.684 1.2392 297.03 1.2392C302.65 1.28345 308.227 1.2392 313.847 1.2392C316.149 1.2392 317.432 2.34563 317.388 4.20443C317.344 6.06323 316.104 7.1254 313.759 7.1254C308.758 7.16966 303.712 7.1254 298.711 7.1254C295.481 7.1254 293.755 8.80717 293.71 11.9937C293.666 15.2245 295.392 17.0833 298.711 17.1275C303.668 17.1718 308.581 17.1275 313.538 17.1275C316.149 17.1275 317.609 18.3225 317.609 20.4025C317.653 22.5711 316.149 23.8103 313.449 23.8103C310.705 23.8989 307.873 23.8989 305.084 23.8989Z" fill="white"/>
<path d="M344.429 7.74497C343.632 7.56794 342.88 7.16962 342.083 7.16962C336.463 7.12537 330.886 7.25814 325.266 7.03685C324.115 6.99259 322.566 5.97468 322.035 5.00102C321.592 4.11588 321.991 2.34559 322.654 1.46045C323.23 0.708078 324.69 0.398278 325.797 0.398278C331.55 0.309764 337.304 0.354021 343.057 0.354021C346.73 0.354021 349.519 2.25708 350.581 5.39934C351.687 8.71862 350.581 11.8166 347.527 14.118C347.217 14.3393 346.907 14.5163 346.509 14.8261C347.615 15.7998 348.678 16.7292 349.651 17.6586C351.2 19.1633 351.377 21.2434 350.138 22.5711C348.855 23.9431 346.819 23.9873 345.226 22.5711C343.057 20.6681 341.065 18.588 338.808 16.8177C337.746 15.9768 336.286 15.667 334.914 15.2687C334.073 15.0474 333.143 15.1802 332.302 15.0474C330.532 14.7376 329.514 13.6754 329.603 11.8609C329.736 9.95782 330.842 8.85139 332.745 8.80714C335.932 8.71862 339.074 8.76288 342.26 8.76288C342.88 8.76288 343.544 8.67437 344.163 8.63011C344.252 8.36457 344.34 8.05477 344.429 7.74497Z" fill="white"/>
<path d="M304.553 8.76289C305.97 8.76289 307.342 8.71864 308.758 8.76289C310.661 8.85141 311.9 10.1791 311.944 12.0379C311.989 13.8967 310.838 15.3572 308.935 15.4457C306.014 15.5785 303.049 15.5785 300.128 15.4457C298.269 15.3572 296.985 13.8082 296.985 12.0822C296.985 10.2234 298.357 8.89567 300.393 8.76289C300.526 8.76289 300.703 8.76289 300.836 8.76289C302.031 8.76289 303.314 8.76289 304.553 8.76289Z" fill="white"/>
<path d="M321.592 16.862C321.592 15.4015 321.504 13.8968 321.592 12.4363C321.725 10.5332 322.92 9.51531 324.735 9.33828C326.505 9.16125 328.187 10.4447 328.275 12.215C328.408 15.313 328.452 18.411 328.231 21.4647C328.098 23.3235 326.682 24.2972 324.823 24.2087C323.053 24.1202 321.725 23.1908 321.592 21.2435C321.504 19.783 321.592 18.3225 321.592 16.862Z" fill="white"/>
<path d="M132.658 2.92099C133.632 2.92099 134.606 2.83248 135.535 2.96525C137.305 3.18654 138.279 4.38148 138.412 6.10751C138.545 7.83354 137.704 9.29402 135.933 9.51531C133.765 9.82511 131.508 9.86937 129.339 9.55957C127.525 9.33828 126.639 7.83354 126.816 5.97474C126.993 4.24871 127.967 3.14228 129.782 2.92099C130.711 2.83248 131.685 2.92099 132.658 2.92099Z" fill="white"/>
<path d="M129.872 51.8321C127.394 50.8142 125.756 48.9554 124.34 46.7426C121.419 42.2283 118.321 37.8469 115.267 33.4212C113.94 31.4739 114.117 29.7036 115.71 28.5529C117.303 27.4022 119.428 27.7563 120.711 29.6151C123.942 34.2621 127.084 38.9976 130.271 43.6888C131.598 45.5919 132.616 45.6361 133.457 43.8216C133.678 43.3348 133.413 42.4496 133.103 41.9185C131.244 39.0861 129.297 36.2979 127.394 33.5097C126.066 31.5181 126.155 29.7921 127.704 28.6414C129.386 27.4022 131.51 27.8005 132.838 29.7478C134.519 32.1377 136.157 34.6161 137.971 37.2715C139.697 34.7489 141.291 32.4033 142.928 30.0576C144.433 27.9333 146.425 27.3579 148.151 28.5529C149.832 29.7478 149.921 31.5624 148.46 33.7752C146.69 36.3864 145.008 39.0861 143.105 41.6087C141.778 43.379 142.397 44.3084 144.212 45.3263C144.831 44.6182 145.451 43.9101 145.982 43.1577C149.08 38.6878 152.089 34.1293 155.232 29.6593C156.781 27.4022 159.967 27.2252 161.029 29.4823C161.472 30.4559 161.428 32.182 160.852 33.1114C157.489 38.378 153.992 43.6003 150.319 48.6456C149.345 49.9733 147.664 50.77 146.292 51.8321C144.831 51.8321 143.327 51.8321 141.866 51.8321C140.583 51.0355 139.255 50.1946 138.104 49.4865C136.644 50.2831 135.272 51.0798 133.9 51.8321C132.528 51.8321 131.2 51.8321 129.872 51.8321Z" fill="white"/>
<path d="M291.853 42.0956C290.88 44.0429 290.127 46.123 288.888 47.8932C287.251 50.2389 284.684 51.301 281.807 51.301C276.363 51.301 270.876 51.3453 265.432 51.301C262.511 51.301 261.449 50.1504 261.405 47.2736C261.405 42.3168 261.405 37.4043 261.405 32.4475C261.405 29.5265 262.467 28.4644 265.432 28.4644C270.522 28.4644 275.611 28.4644 280.701 28.4644C286.233 28.4644 289.685 31.0313 291.322 36.2979C291.455 36.7847 291.676 37.2273 291.853 37.7141C291.853 39.1303 291.853 40.6351 291.853 42.0956ZM268.264 45.1493C273.133 45.1493 277.78 45.2821 282.471 45.105C284.64 45.0165 286.012 42.8479 286.012 40.2368C286.012 37.6698 284.728 35.5898 282.648 35.5012C277.912 35.3242 273.133 35.457 268.309 35.457C268.264 38.732 268.264 41.7858 268.264 45.1493Z" fill="white"/>
<path d="M225.025 51.8322C222.37 49.4865 219.67 47.2294 217.147 44.7953C216.041 43.7331 214.935 43.202 213.43 43.4233C212.766 43.5118 212.102 43.4676 211.438 43.379C209.137 43.1578 207.986 42.0513 208.03 40.1483C208.03 38.1567 209.314 36.9175 211.66 36.8732C214.625 36.829 217.546 36.9175 220.511 36.829C221.352 36.7847 222.148 36.2536 222.945 35.9881C222.857 35.8111 222.812 35.5898 222.724 35.4128C216.882 35.4128 211.04 35.4128 205.198 35.4128C204.401 35.4128 203.56 35.4128 202.764 35.2357C200.949 34.8374 199.976 33.6425 200.064 31.7837C200.153 29.8806 201.259 28.5972 203.074 28.5529C209.624 28.4201 216.174 28.3759 222.724 28.5972C225.955 28.6857 228.344 31.1641 229.097 34.1736C229.849 37.2716 228.787 40.1483 226.132 42.1398C225.778 42.4054 225.423 42.6267 224.715 43.0692C226.22 44.4855 227.902 45.5476 228.92 47.0524C230.248 49.044 228.92 50.6372 227.238 51.8764C226.486 51.8322 225.778 51.8322 225.025 51.8322Z" fill="white"/>
<path d="M238.302 27.0482C239.984 28.0661 240.604 29.4823 240.56 31.4739C240.427 34.8374 240.692 38.2452 240.471 41.6088C240.338 43.9544 241.223 44.4855 243.392 44.397C247.508 44.2642 251.624 44.3527 255.74 44.3527C258.395 44.3527 259.944 45.6804 259.9 47.8048C259.856 49.9734 258.395 51.2126 255.651 51.2568C251.181 51.3011 246.667 51.3011 242.197 51.2568C236.975 51.1683 233.788 48.0703 233.655 42.8922C233.567 38.9976 233.478 35.0587 233.744 31.2083C233.832 29.7921 234.983 28.4201 235.647 27.0482C236.532 27.0482 237.417 27.0482 238.302 27.0482Z" fill="white"/>
<path d="M202.454 51.8322C200.684 50.77 200.02 49.2652 200.153 47.2294C200.285 44.9723 200.153 42.6709 200.197 40.3696C200.241 38.2452 201.657 36.7847 203.56 36.7847C205.464 36.7847 206.88 38.2452 206.924 40.3696C206.968 42.6709 206.835 44.928 206.968 47.2294C207.101 49.2652 206.437 50.8142 204.667 51.8322C203.915 51.8322 203.206 51.8322 202.454 51.8322Z" fill="white"/>
<path d="M179.44 28.4644C180.68 28.4644 181.963 28.4644 183.202 28.4644C190.505 28.4644 195.373 34.0408 194.444 41.2989C193.824 46.2115 190.416 51.7436 183.158 51.3453C180.724 51.2125 178.29 51.124 175.856 51.3453C166.252 52.2747 162.49 42.1398 164.747 35.8553C166.473 30.987 169.837 28.4644 175.015 28.4644C176.475 28.4644 177.936 28.4644 179.44 28.4644ZM179.396 35.3685C177.759 35.3685 176.165 35.3242 174.528 35.3685C171.917 35.457 170.456 37.1388 170.368 40.0155C170.279 42.8922 171.651 44.9723 174.085 45.105C177.537 45.2821 180.989 45.2821 184.442 45.105C186.92 44.9723 188.292 42.9364 188.159 40.0155C188.071 37.1388 186.566 35.4127 183.999 35.3242C182.494 35.3242 180.945 35.3685 179.396 35.3685Z" fill="white"/>
</svg>
