<svg width="87" height="87" viewBox="0 0 87 87" fill="none" xmlns="http://www.w3.org/2000/svg">
<g clip-path="url(#clip0_2642_79)">
<path d="M43.5 87C67.5244 87 87 67.5244 87 43.5C87 19.4756 67.5244 0 43.5 0C19.4756 0 0 19.4756 0 43.5C0 67.5244 19.4756 87 43.5 87Z" fill="#DE1943"/>
<path fill-rule="evenodd" clip-rule="evenodd" d="M36.8787 57.1213C35.7071 55.9497 35.7071 54.0503 36.8787 52.8787L46.7574 43L36.8787 33.1213C35.7071 31.9497 35.7071 30.0503 36.8787 28.8787C38.0503 27.7071 39.9497 27.7071 41.1213 28.8787L53.1213 40.8787C54.2929 42.0503 54.2929 43.9497 53.1213 45.1213L41.1213 57.1213C39.9497 58.2929 38.0503 58.2929 36.8787 57.1213Z" fill="white"/>
</g>
<defs>
<clipPath id="clip0_2642_79">
<rect width="87" height="87" fill="white"/>
</clipPath>
</defs>
</svg>
